<?xml version="1.0" encoding="UTF-8"?>
<svg width="32px" height="22px" viewBox="0 0 32 22" version="1.1" xmlns="http://www.w3.org/2000/svg" xmlns:xlink="http://www.w3.org/1999/xlink">
    <!-- Generator: Sketch 46 (44423) - http://www.bohemiancoding.com/sketch -->
    <title>noun_1106326</title>
    <desc>Created with Sketch.</desc>
    <defs></defs>
    <g id="Page-1" stroke="none" stroke-width="1" fill="none" fill-rule="evenodd">
        <g id="noun_1106326" transform="translate(-16.000000, -21.000000)">
            <rect id="Rectangle-path" x="0" y="0" width="64" height="64"></rect>
            <path d="M46.127,21.505 C46.239,21.52 46.268,21.52 46.378,21.548 C46.666,21.623 46.929,21.785 47.126,22.009 C47.238,22.137 47.329,22.283 47.392,22.441 C47.455,22.598 47.491,22.767 47.499,22.936 C47.522,23.497 47.221,24.036 46.732,24.31 C46.583,24.392 46.421,24.45 46.254,24.478 C46.142,24.498 46.113,24.495 46,24.5 L18,24.5 C17.887,24.495 17.858,24.498 17.747,24.478 C17.453,24.428 17.177,24.289 16.962,24.083 C16.839,23.965 16.737,23.827 16.661,23.675 C16.584,23.524 16.534,23.359 16.512,23.191 C16.452,22.723 16.622,22.243 16.962,21.917 C17.054,21.829 17.157,21.753 17.268,21.69 C17.417,21.608 17.579,21.55 17.747,21.522 C17.858,21.502 17.887,21.505 18,21.5 L46,21.5 C46.042,21.502 46.085,21.504 46.127,21.505 L46.127,21.505 Z" id="Shape" fill="#FFFFFF"></path>
            <path d="M46.127,30.505 C46.239,30.52 46.268,30.52 46.378,30.548 C46.666,30.623 46.929,30.785 47.126,31.009 C47.238,31.137 47.329,31.283 47.392,31.441 C47.601,31.961 47.496,32.57 47.126,32.991 C47.014,33.119 46.88,33.227 46.732,33.31 C46.583,33.392 46.421,33.45 46.254,33.478 C46.142,33.498 46.113,33.495 46,33.5 L18,33.5 C17.887,33.495 17.858,33.498 17.747,33.478 C17.579,33.45 17.417,33.392 17.268,33.31 C16.857,33.079 16.572,32.658 16.512,32.191 C16.496,32.064 16.496,31.936 16.512,31.809 C16.534,31.641 16.584,31.476 16.661,31.325 C16.737,31.173 16.839,31.035 16.962,30.917 C17.177,30.711 17.453,30.572 17.747,30.522 C17.858,30.502 17.887,30.505 18,30.5 L46,30.5 C46.042,30.502 46.085,30.504 46.127,30.505 L46.127,30.505 Z" id="Shape" fill="#FFFFFF"></path>
            <path d="M46.127,39.505 C46.239,39.52 46.268,39.52 46.378,39.548 C46.666,39.623 46.929,39.785 47.126,40.009 C47.496,40.43 47.601,41.039 47.392,41.559 C47.329,41.717 47.238,41.863 47.126,41.991 C47.014,42.119 46.88,42.227 46.732,42.31 C46.583,42.392 46.421,42.45 46.254,42.478 C46.142,42.498 46.113,42.495 46,42.5 L18,42.5 C17.887,42.495 17.858,42.498 17.747,42.478 C17.453,42.428 17.177,42.289 16.962,42.083 C16.87,41.995 16.79,41.895 16.723,41.786 C16.475,41.385 16.432,40.878 16.608,40.441 C16.672,40.283 16.762,40.137 16.874,40.009 C16.986,39.881 17.12,39.773 17.268,39.69 C17.417,39.608 17.579,39.55 17.747,39.522 C17.858,39.502 17.887,39.505 18,39.5 L46,39.5 C46.042,39.502 46.085,39.504 46.127,39.505 Z" id="Shape" fill="#FFFFFF"></path>
        </g>
    </g>
</svg>