<?xml version="1.0" encoding="UTF-8"?>
<svg width="56px" height="95px" viewBox="0 0 56 95" version="1.1" xmlns="http://www.w3.org/2000/svg" xmlns:xlink="http://www.w3.org/1999/xlink">
    <!-- Generator: Sketch 46 (44423) - http://www.bohemiancoding.com/sketch -->
    <title>noun_737134</title>
    <desc>Created with Sketch.</desc>
    <defs></defs>
    <g id="Page-1" stroke="none" stroke-width="1" fill="none" fill-rule="evenodd">
        <g id="Artboard-3-Copy-19" transform="translate(-404.000000, -684.000000)" stroke-width="4" stroke="#000000">
            <g id="Group-2" transform="translate(292.000000, 686.000000)">
                <g id="noun_737134" transform="translate(114.000000, 0.000000)">
                    <g id="Group" stroke-linecap="round" stroke-linejoin="round">
                        <path d="M40.8571429,10.9805825 C40.8571429,10.9805825 40.8571429,14.6407767 37.1428571,14.6407767 L14.8571429,14.6407767 C14.8571429,14.6407767 11.1428571,14.6407767 11.1428571,10.9805825 L11.1428571,3.66019417 C11.1428571,3.66019417 11.1428571,0 14.8571429,0 L37.1428571,0 C37.1428571,0 40.8571429,0 40.8571429,3.66019417 L40.8571429,10.9805825 Z" id="Shape"></path>
                        <path d="M36.4,15.3728155 L36.4,16.8368932 C36.4,16.8368932 36.4,20.4970874 40.1142857,20.4970874 L40.8571429,20.4970874 C40.8571429,20.4970874 52,20.4970874 52,31.4776699 L52,87.1126214 C52,87.1126214 52,90.7728155 48.2857143,90.7728155 L3.71428571,90.7728155 C0,90.7728155 0,87.1126214 0,87.1126214 L0,31.4776699 C0,20.4970874 11.1428571,20.4970874 11.1428571,20.4970874 L11.8857143,20.4970874 C15.6,20.4970874 15.6,16.8368932 15.6,16.8368932 L15.6,15.3728155" id="Shape"></path>
                    </g>
                    <path d="M37,52 L25,64" id="Shape" stroke-linecap="square"></path>
                    <path d="M15.3722222,67 C14.5055556,65.1538462 14,63.0769231 14,60.8461538 C14,53.2307692 19.85,47 27,47 C34.15,47 40,53.2307692 40,60.8461538 C40,62.1538462 39.8555556,63.4615385 39.4944444,64.6923077" id="Shape" stroke-linecap="square"></path>
                    <path d="M14.0145134,53 C12.8095497,52.7204226 11.5292758,52.0913736 10.324312,50.9730641 C10.324312,50.9730641 4.45011385,45.5213056 11.3786553,39.0910264 C14.5416851,36.1554641 18.8343684,32.1714867 18.8343684,32.1714867 C18.8343684,32.1714867 25.7629098,25.7412075 31.637108,31.192966 C37.5113062,36.6447245 30.5827647,43.0750037 30.5827647,43.0750037 L28.3234577,45.1019396" id="Shape" stroke-linecap="square"></path>
                    <path d="M16,37 L25,46" id="Shape" stroke-linecap="square"></path>
                    <path d="M14,72.5 C14,72.5 14,64 23.1,64 C27.3,64 32.9,64 32.9,64 C32.9,64 42,64 42,72.5 C42,81 32.9,81 32.9,81 L23.1,81 C23.1,81 14,81 14,72.5 Z" id="Shape" stroke-linecap="square"></path>
                    <path d="M27,66 L27,79" id="Shape" stroke-linecap="square"></path>
                </g>
            </g>
        </g>
    </g>
</svg>