<?xml version="1.0" encoding="UTF-8"?>
<svg width="78px" height="94px" viewBox="0 0 78 94" version="1.1" xmlns="http://www.w3.org/2000/svg" xmlns:xlink="http://www.w3.org/1999/xlink">
    <!-- Generator: Sketch 46 (44423) - http://www.bohemiancoding.com/sketch -->
    <title>noun_1102213</title>
    <desc>Created with Sketch.</desc>
    <defs></defs>
    <g id="Page-1" stroke="none" stroke-width="1" fill="none" fill-rule="evenodd">
        <g id="Artboard-3-Copy-19" transform="translate(-393.000000, -957.000000)" fill-rule="nonzero" fill="#000000">
            <g id="Group-3" transform="translate(312.000000, 957.000000)">
                <g id="noun_1102213" transform="translate(82.000000, 0.000000)">
                    <path d="M75.984,92 L75.984,20.063 C75.961,19.875 75.94,19.768 75.904,19.663 C75.801,19.413 75.725,19.287 75.618,19.18 L57.556,1.117 C57.449,1.01 57.323,0.932 57.189,0.872 C56.97,0.795 56.863,0.774 56.752,0.767 C56.734,0.766333333 38.2386667,0.761 1.266,0.751 C0.576,0.751 0.016,1.311 0.016,2.001 L0.016,92.001 C0.016,92.691 0.576,93.251 1.266,93.251 L74.735,93.251 C75.425,93.25 75.984,92.691 75.984,92 Z M57.922,5.018 L71.717,18.813 L57.922,18.813 L57.922,5.018 Z M2.516,90.75 L2.516,3.25 L55.422,3.25 L55.422,20.063 C55.422,20.753 55.982,21.313 56.672,21.313 L73.485,21.313 L73.485,90.75 L2.516,90.75 Z" id="Shape" stroke="#000000"></path>
                    <path d="M12.498,35.919 L25.068,35.919 C25.758,35.919 26.318,35.359 26.318,34.669 C26.318,33.979 25.758,33.419 25.068,33.419 L12.498,33.419 C11.808,33.419 11.248,33.979 11.248,34.669 C11.248,35.359 11.808,35.919 12.498,35.919 Z" id="Shape"></path>
                    <path d="M63.506,81.563 L50.932,81.563 C50.242,81.563 49.682,82.123 49.682,82.813 C49.682,83.503 50.242,84.063 50.932,84.063 L63.506,84.063 C64.196,84.063 64.756,83.503 64.756,82.813 C64.756,82.123 64.196,81.563 63.506,81.563 Z" id="Shape"></path>
                    <path d="M11.248,47.001 C11.248,47.691 11.808,48.251 12.498,48.251 L63.506,48.251 C64.196,48.251 64.756,47.691 64.756,47.001 C64.756,46.311 64.196,45.751 63.506,45.751 L12.498,45.751 C11.808,45.751 11.248,46.311 11.248,47.001 Z" id="Shape"></path>
                    <path d="M63.506,56.007 L12.498,56.007 C11.808,56.007 11.248,56.567 11.248,57.257 C11.248,57.947 11.808,58.507 12.498,58.507 L63.506,58.507 C64.196,58.507 64.756,57.947 64.756,57.257 C64.756,56.567 64.196,56.007 63.506,56.007 Z" id="Shape"></path>
                    <path d="M63.506,67.734 L12.498,67.734 C11.808,67.734 11.248,68.294 11.248,68.984 C11.248,69.674 11.808,70.234 12.498,70.234 L63.506,70.234 C64.196,70.234 64.756,69.674 64.756,68.984 C64.756,68.294 64.196,67.734 63.506,67.734 Z" id="Shape"></path>
                    <path d="M17.021,26.355 L24.353,26.355 L24.353,20.578 L30.13,20.578 L30.13,13.247 L24.353,13.247 L24.353,7.471 L17.021,7.471 L17.021,13.246 L11.248,13.246 L11.248,20.577 L17.021,20.577 L17.021,26.355 Z M13.748,18.078 L13.748,15.747 L19.521,15.747 L19.521,9.972 L21.853,9.972 L21.853,15.747 L27.63,15.747 L27.63,18.078 L21.853,18.078 L21.853,23.855 L19.521,23.855 L19.521,18.078 L13.748,18.078 Z" id="Shape"></path>
                </g>
            </g>
        </g>
    </g>
</svg>