<?xml version="1.0" encoding="UTF-8"?>
<svg width="94px" height="94px" viewBox="0 0 94 94" version="1.1" xmlns="http://www.w3.org/2000/svg" xmlns:xlink="http://www.w3.org/1999/xlink">
    <!-- Generator: Sketch 46 (44423) - http://www.bohemiancoding.com/sketch -->
    <title>noun_996794</title>
    <desc>Created with Sketch.</desc>
    <defs></defs>
    <g id="Page-1" stroke="none" stroke-width="1" fill="none" fill-rule="evenodd">
        <g id="Artboard-3-Copy-19" transform="translate(-748.000000, -686.000000)" fill-rule="nonzero" fill="#000000">
            <g id="Group-4" transform="translate(675.000000, 686.000000)">
                <g id="noun_996794" transform="translate(73.000000, 0.000000)">
                    <path d="M47,94 C21.0820676,94 0,72.9140944 0,47 C0,21.0859056 21.0820676,0 47,0 C72.9179324,0 94,21.0859056 94,47 C94,72.9140944 72.9179324,94 47,94 Z M47,5.5574065 C24.14862,5.5574065 5.5574065,24.14862 5.5574065,47 C5.5574065,69.85138 24.14862,88.4425935 47,88.4425935 C69.85138,88.4425935 88.4425935,69.85138 88.4425935,47 C88.4425935,24.14862 69.85138,5.5574065 47,5.5574065 Z M47.0575698,75.3972726 C65.5374816,74.7755185 72.6876531,61.8645272 73.9349992,59.2815613 C74.4761555,58.1570309 74.0731667,56.7676792 73.03691,56.1804671 C72.0044913,55.5932549 70.7226033,56.0269476 70.177609,57.151478 C69.5289891,58.4909358 63.3920464,70.2543688 46.9270782,70.810877 C30.8612608,71.3213294 24.121754,57.7732321 23.830067,57.162992 C23.2927487,56.0384615 22.0223747,55.589417 20.9822799,56.1727911 C19.9421852,56.7561653 19.5315205,58.1340029 20.0650008,59.2662094 C20.3835538,59.9340193 27.9252001,75.4203005 45.9752572,75.4203005 C46.3321901,75.4164625 46.689123,75.4087865 47.0575698,75.3972726 L47.0575698,75.3972726 Z M36.0348685,37.7542871 C36.0348685,41.0204148 34.288584,43.6724645 32.1393108,43.6724645 C29.9900376,43.6724645 28.2437531,41.0204148 28.2437531,37.7542871 C28.2437531,34.4881594 29.9900376,31.8361098 32.1393108,31.8361098 C34.288584,31.8361098 36.0348685,34.4881594 36.0348685,37.7542871 Z M66.0863139,37.7542871 C66.0863139,41.0204148 64.3438674,43.6724645 62.1945942,43.6724645 C60.0453209,43.6724645 58.2990364,41.0204148 58.2990364,37.7542871 C58.2990364,34.4881594 60.0414829,31.8361098 62.1945942,31.8361098 C64.3477054,31.8361098 66.0863139,34.4881594 66.0863139,37.7542871 Z" id="Shape"></path>
                </g>
            </g>
        </g>
    </g>
</svg>