<?xml version="1.0" encoding="UTF-8"?>
<svg width="93px" height="93px" viewBox="0 0 93 93" version="1.1" xmlns="http://www.w3.org/2000/svg" xmlns:xlink="http://www.w3.org/1999/xlink">
    <!-- Generator: Sketch 46 (44423) - http://www.bohemiancoding.com/sketch -->
    <title>noun_1121234</title>
    <desc>Created with Sketch.</desc>
    <defs></defs>
    <g id="Page-1" stroke="none" stroke-width="1" fill="none" fill-rule="evenodd">
        <g id="Artboard-3-Copy-19" transform="translate(-760.000000, -957.000000)" fill-rule="nonzero" fill="#000000">
            <g id="Group-5" transform="translate(674.000000, 957.000000)">
                <g id="noun_1121234" transform="translate(86.000000, 0.000000)">
                    <path d="M21.361949,90.7343387 L16.075406,85.3399072 L26.0011601,75.4141531 L34.4164733,83.8294664 L36.6821346,81.5638051 L31.9350348,76.8167053 L70.6670534,38.0846868 C72.824826,35.9269142 72.9327146,32.474478 70.9907193,30.1009281 L76.7088167,24.3828306 C78.2192575,22.8723898 78.2192575,20.4988399 76.7088167,19.0962877 L76.4930394,18.8805104 L93,2.26566125 L90.7343387,0 L74.3352668,16.3990719 L74.1194896,16.1832947 C72.6090487,14.6728538 70.2354988,14.6728538 68.8329466,16.1832947 L63.1148492,21.9013921 C60.7412993,19.9593968 57.2888631,20.0672854 55.1310905,22.225058 L16.1832947,61.0649652 L11.4361949,56.3178654 L9.17053364,58.5835267 L16.8306265,66.2436195 L6.90487239,76.1693735 L2.26566125,71.638051 L0,73.9037123 L19.0962877,93 L21.361949,90.7343387 Z M70.9907193,18.4489559 C71.2064965,18.2331787 71.5301624,18.2331787 71.7459397,18.4489559 L74.5510441,21.2540603 C74.7668213,21.4698376 74.7668213,21.7935035 74.5510441,22.0092807 L68.8329466,27.7273782 L65.2726218,24.1670534 L70.9907193,18.4489559 Z M25.3538283,56.5336427 L32.0429234,63.2227378 L34.3085847,60.9570766 L27.6194896,54.2679814 L33.0139211,48.8735499 L37.437355,53.2969838 L39.7030162,51.0313225 L35.2795824,46.6078886 L40.5661253,41.3213457 L47.2552204,48.0104408 L49.5208817,45.7447796 L42.8317865,38.9477958 L48.1183295,33.6612529 L52.5417633,38.0846868 L54.8074246,35.8190255 L50.3839907,31.3955916 L57.0730858,24.7064965 C58.1519722,23.6276102 59.8781903,23.6276102 60.8491879,24.7064965 L68.1856148,32.0429234 C69.2645012,33.1218097 69.2645012,34.8480278 68.1856148,35.8190255 L29.6693735,74.5510441 L18.4489559,63.3306265 L25.3538283,56.5336427 Z M19.0962877,68.5092807 L23.6276102,73.0406032 L13.7018561,82.9663573 L9.17053364,78.4350348 L19.0962877,68.5092807 Z" id="Shape"></path>
                </g>
            </g>
        </g>
    </g>
</svg>